Taxi Driver (1976) Remastered Version

Director: Martin Scorsese

Taxi Driver is a 1976 American drama film directed by Martin Scorsese and written by Paul Schrader. The film is set in New York City, soon after the Vietnam War. The film stars Robert De Niro and features Albert Brooks, Harvey Keitel, Leonard Harris, Peter Boyle, Cybill Shepherd, and a young Jodie Foster. The film was nominated for four Academy Awards, including Best Picture, and won the Palme d'Or at the 1976 Cannes Film Festival.

The film gained further notoriety when John Hinckley, Jr. claimed that it was his obsession with Foster's role that made him attempt to assassinate Ronald Reagan in 1981.

Legendary for Robert De Niro's intense method performance; Paul Schrader's hard hitting exisentialist script, a blend of Sartre's La Nausee and the diaries of would be political assassin Arthur Bremer; and movie brat Martin Scorsese's extraordinarily fluid, cine literate direction, Taxi Driver is one of the key films of the 1970s as film and as example of the zeitgeist, and thereby an absolute must-see for anyone who loves cinema.

Operating on multiple levels, the film presents a deeply ironic examination of the myth of the cowboy via the figure of Travis Bickle, a would be John Wayne hero displaced in time from the 1870s to the 1970s and in place from the frontier to the mean streets of New York.

Taking a job as a taxi driver, the Vietnam veteran's fragile mind soon begins to crack in the face of the corruption that surrounds him most everywhere he looks. Things come to a head over two women, the unattainable campaign worker Betsy , the classic virgin, and too available 13 year old runaway prostitute Iris, the classic whore.

After a disastrous date when Travis takes Betsy to a porno theatre, some fascinating documentary material of the pre clean up 42nd Street, Travis resolves to take a stand, to make the world sit up and take notice. His target, Presidential candidate Palantine, the father figure who, in his warped mind, represents the reason Betsy has rejected him...

Forget The Assassination of Richard Nixon, good as it is; Taxi Driver is the original and best.

Media Info:
General
Complete name                    : J:\Seeding\Taxi Driver (1976)[DVDRip][big_dad_e™]\Taxi Driver (1976)[DVDRip][big_dad_e™].avi
Format                           : AVI
Format/Info                      : Audio Video Interleave
Format profile                   : OpenDML
File size                        : 2.31 GiB
Duration                         : 1h 53mn
Overall bit rate                 : 2 909 Kbps
Writing application              : Lavf51.12.1

Video
ID                               : 0
Format                           : MPEG-4 Visual
Format profile                   : Simple@L1
Format settings, BVOP            : No
Format settings, QPel            : No
Format settings, GMC             : No warppoints
Format settings, Matrix          : Default (H.263)
Codec ID                         : DX50
Codec ID/Hint                    : DivX 5
Duration                         : 1h 53mn
Bit rate                         : 2 577 Kbps
Width                            : 852 pixels
Height                           : 480 pixels
Display aspect ratio             : 16:9
Frame rate                       : 23.976 fps
Color space                      : YUV
Chroma subsampling               : 4:2:0
Bit depth                        : 8 bits
Scan type                        : Progressive
Bits/(Pixel*Frame)               : 0.263
Stream size                      : 2.05 GiB (89%)
Writing library                  : Lavc51.40.4

Audio
ID                               : 1
Format                           : MPEG Audio
Format version                   : Version 1
Format profile                   : Layer 3
Mode                             : Joint stereo
Codec ID                         : 55
Codec ID/Hint                    : MP3
Duration                         : 1h 53mn
Bit rate mode                    : Constant
Bit rate                         : 320 Kbps
Channel(s)                       : 2 channels
Sampling rate                    : 44.1 KHz
Stream size                      : 260 MiB (11%)
Alignment                        : Aligned on interleaves
Interleave, duration             : 26 ms (0.63 video frame)
Writing library                  : LAME3.97

File Scan:
Malwarebytes' Anti-Malware 1.46
www.malwarebytes.org

Database version: 5126

Windows 5.1.2600 Service Pack 3
Internet Explorer 8.0.6001.18702

11/18/2010 5:56:47 AM
mbam-log-2010-11-18 (05-56-47).txt

Scan type: Quick scan
Objects scanned: 6
Time elapsed: 20 second(s)

Memory Processes Infected: 0
Memory Modules Infected: 0
Registry Keys Infected: 0
Registry Values Infected: 0
Registry Data Items Infected: 0
Folders Infected: 0
Files Infected: 0

Memory Processes Infected:
(No malicious items detected)

Memory Modules Infected:
(No malicious items detected)

Registry Keys Infected:
(No malicious items detected)

Registry Values Infected:
(No malicious items detected)

Registry Data Items Infected:
(No malicious items detected)

Folders Infected:
(No malicious items detected)

Files Infected:
(No malicious items detected)

When using TPB please read these important notes:
  
01- Anti-malware apps may warn about keygens, patches, cracks, etc., because of 
    their capabilities, (generating codes, etc.). Sometimes they're added to 
    the virus/spyware database and will be detected as malware. If you don't trust
    the keygens, patches, cracks, etc., don't use them. 
    
02- Before running .exe-files, keygens, patches, cracks, etc., always check first 
    if they can be unpacked. Often some third party added a virus to the 
    original file, repacked it and uploaded it again.

03- Letting anti-malware apps send scan results to their companies can cause
    keygens, patches, cracks, etc., to be added to their virus-database.

04- Firewalls which are set to automatically determine connections will allow 
    apps & malware!. Avoid this by manually configuring your firewall.

05- Usually (new) torrents with many downloads and seeders in a brief period is
    suspicious! Torrents with the Skull & Crossbones icon are trusted.

06- Some people use multiple accounts and post fake comments 
    and/or files trying to spread confusion. They seldom seriously
    comment or have any torrents, or a just a few to look passable.

07- Clicking on unknown links can cause malware to be installed on your machine.
  
08- In general often there are more fake and negative comments than reliable and
    positive comments.

09- In some countries uploading/downloading copyright protected material is 
    forbidden, but showing some appreciation to reliable up-loaders is not.

10- Posting fake and negative comments or fake/infected uploads on TPB can result
    in getting banned from TPB!

Requests?  Find me on SuprBay.
 

For reporting bad or suspicious torrents:  
http://forum.suprbay.org/forumdisplay.php?fid=29

For more of my torrents: 
https://thepiratebay.org/user/big_dad_e/  (Secured)

All torrents scanned with:
Norton Anti-virus
Malwarebytes' Anti-malware
 
http://www.pirate-party.us/

ALWAYS SEED & THANKS SEEDERS!